HIERARCHY
ROOT hip
{
  OFFSET 0 0 0
  CHANNELS 6 Xposition Yposition Zposition Zrotation Yrotation Xrotation
  JOINT abdomen
  {
    OFFSET 0 20.6881 -0.73152
    CHANNELS 3 Zrotation Xrotation Yrotation
    JOINT chest
    {
      OFFSET 0 11.7043 -0.48768
      CHANNELS 3 Zrotation Xrotation Yrotation
      JOINT neck
      {
        OFFSET 0 22.1894 -2.19456
        CHANNELS 3 Zrotation Xrotation Yrotation
        JOINT head
        {
          OFFSET -0.24384 7.07133 1.2192
          CHANNELS 3 Zrotation Xrotation Yrotation
          JOINT leftEye
          {
            OFFSET 4.14528 8.04674 8.04672
            CHANNELS 3 Zrotation Xrotation Yrotation
            End Site
            {
              OFFSET 1 0 0
            }
          }
          JOINT rightEye
          {
            OFFSET -3.6576 8.04674 8.04672
            CHANNELS 3 Zrotation Xrotation Yrotation
            End Site
            {
              OFFSET 1 0 0
            }
          }
        }
      }
      JOINT rCollar
      {
        OFFSET -2.68224 19.2634 -4.8768
        CHANNELS 3 Zrotation Xrotation Yrotation
        JOINT rShldr
        {
          OFFSET -8.77824 -1.95073 1.46304
          CHANNELS 3 Zrotation Xrotation Yrotation
          JOINT rForeArm
          {
            OFFSET -28.1742 -1.7115 0.48768
            CHANNELS 3 Zrotation Xrotation Yrotation
            JOINT rHand
            {
              OFFSET -22.5879 0.773209 7.07136
              CHANNELS 3 Zrotation Xrotation Yrotation
              JOINT rThumb1
              {
                OFFSET -1.2192 -0.487915 3.41376
                CHANNELS 3 Zrotation Xrotation Yrotation
                JOINT rThumb2
                {
                  OFFSET -3.37035 -0.52449 3.41376
                  CHANNELS 3 Zrotation Xrotation Yrotation
                  End Site
                  {
                    OFFSET -1.78271 -1.18214 1.43049
                  }
                }
              }
              JOINT rIndex1
              {
                OFFSET -7.75947 0.938293 5.60832
                CHANNELS 3 Zrotation Xrotation Yrotation
                JOINT rIndex2
                {
                  OFFSET -2.54057 -0.884171 1.56538
                  CHANNELS 3 Zrotation Xrotation Yrotation
                  End Site
                  {
                    OFFSET -1.62519 -0.234802 1.16502
                  }
                }
              }
              JOINT rMid1
              {
                OFFSET -8.24714 1.18213 3.41376
                CHANNELS 3 Zrotation Xrotation Yrotation
                JOINT rMid2
                {
                  OFFSET -3.10165 -0.590103 1.0647
                  CHANNELS 3 Zrotation Xrotation Yrotation
                  End Site
                  {
                    OFFSET -2.48547 -0.328903 0.83742
                  }
                }
              }
              JOINT rRing1
              {
                OFFSET -8.82822 0.546677 1.51678
                CHANNELS 3 Zrotation Xrotation Yrotation
                JOINT rRing2
                {
                  OFFSET -2.60934 -0.819778 -0.0198488
                  CHANNELS 3 Zrotation Xrotation Yrotation
                  End Site
                  {
                    OFFSET -2.33842 -0.294052 0.168128
                  }
                }
              }
              JOINT rPinky1
              {
                OFFSET -8.27202 -0.0477905 -0.4584
                CHANNELS 3 Zrotation Xrotation Yrotation
                JOINT rPinky2
                {
                  OFFSET -1.82734 -0.647385 -0.700984
                  CHANNELS 3 Zrotation Xrotation Yrotation
                  End Site
                  {
                    OFFSET -1.69225 -0.51767 -0.607171
                  }
                }
              }
            }
          }
        }
      }
      JOINT lCollar
      {
        OFFSET 2.68224 19.2634 -4.8768
        CHANNELS 3 Zrotation Xrotation Yrotation
        JOINT lShldr
        {
          OFFSET 8.77824 -1.95073 1.46304
          CHANNELS 3 Zrotation Xrotation Yrotation
          JOINT lForeArm
          {
            OFFSET 28.1742 -1.7115 0.48768
            CHANNELS 3 Zrotation Xrotation Yrotation
            JOINT lHand
            {
              OFFSET 22.5879 0.773209 7.07136
              CHANNELS 3 Zrotation Xrotation Yrotation
              JOINT lThumb1
              {
                OFFSET 1.2192 -0.487915 3.41376
                CHANNELS 3 Zrotation Xrotation Yrotation
                JOINT lThumb2
                {
                  OFFSET 3.37035 -0.52449 3.41376
                  CHANNELS 3 Zrotation Xrotation Yrotation
                  End Site
                  {
                    OFFSET 1.78271 -1.18214 1.43049
                  }
                }
              }
              JOINT lIndex1
              {
                OFFSET 7.75947 0.938293 5.60832
                CHANNELS 3 Zrotation Xrotation Yrotation
                JOINT lIndex2
                {
                  OFFSET 2.54057 -0.884171 1.56538
                  CHANNELS 3 Zrotation Xrotation Yrotation
                  End Site
                  {
                    OFFSET 1.62519 -0.234802 1.16502
                  }
                }
              }
              JOINT lMid1
              {
                OFFSET 8.24714 1.18213 3.41376
                CHANNELS 3 Zrotation Xrotation Yrotation
                JOINT lMid2
                {
                  OFFSET 3.10165 -0.590103 1.0647
                  CHANNELS 3 Zrotation Xrotation Yrotation
                  End Site
                  {
                    OFFSET 2.48547 -0.328903 0.83742
                  }
                }
              }
              JOINT lRing1
              {
                OFFSET 8.82822 0.546677 1.51678
                CHANNELS 3 Zrotation Xrotation Yrotation
                JOINT lRing2
                {
                  OFFSET 2.60934 -0.819778 -0.0198488
                  CHANNELS 3 Zrotation Xrotation Yrotation
                  End Site
                  {
                    OFFSET 2.33842 -0.294052 0.168128
                  }
                }
              }
              JOINT lPinky1
              {
                OFFSET 8.27202 -0.0477905 -0.4584
                CHANNELS 3 Zrotation Xrotation Yrotation
                JOINT lPinky2
                {
                  OFFSET 1.82734 -0.647385 -0.700984
                  CHANNELS 3 Zrotation Xrotation Yrotation
                  End Site
                  {
                    OFFSET 1.69225 -0.51767 -0.607171
                  }
                }
              }
            }
          }
        }
      }
    }
  }
  JOINT rButtock
  {
    OFFSET -8.77824 4.35084 1.2192
    CHANNELS 3 Zrotation Xrotation Yrotation
    JOINT rThigh
    {
      OFFSET 0 -1.70687 -2.19456
      CHANNELS 3 Zrotation Xrotation Yrotation
      JOINT rShin
      {
        OFFSET 0 -36.8199 0.73152
        CHANNELS 3 Zrotation Xrotation Yrotation
        JOINT rFoot
        {
          OFFSET 0.73152 -45.1104 -5.12064
          CHANNELS 3 Zrotation Xrotation Yrotation
          End Site
          {
            OFFSET -1.1221 -3.69964 12.103
          }
        }
      }
    }
  }
  JOINT lButtock
  {
    OFFSET 8.77824 4.35084 1.2192
    CHANNELS 3 Zrotation Xrotation Yrotation
    JOINT lThigh
    {
      OFFSET 0 -1.70687 -2.19456
      CHANNELS 3 Zrotation Xrotation Yrotation
      JOINT lShin
      {
        OFFSET 0 -36.8199 0.73152
        CHANNELS 3 Zrotation Xrotation Yrotation
        JOINT lFoot
        {
          OFFSET -0.73152 -45.1104 -5.12064
          CHANNELS 3 Zrotation Xrotation Yrotation
          End Site
          {
            OFFSET 1.1221 -3.69964 12.103
          }
        }
      }
    }
  }
}
MOTION
Frames:	4
Frame Time:	0.00833333
-66.4736 85.0267 -5.75954 776.961 -43.8706 -279.64 11.5625 12.938 -21.4544 8.45586 -1.53134 -5.19387 -4.69348 -0.0609067 -0.456182 18.4544 -53.0475 9.51303 -0.0 0.0 0.0 -0.0 0.0 0.0 -8.40031e-13 1.10959e-12 -1.41029e-13 -0.0800434 -32.0571 55.1565 -16.7657 -9.42096 31.3 -1.96791 -36.5467 -5.9742 -2.60767e-09 -8.13436e-10 2.71835e-11 -4.48752e-09 -1.39757e-09 -3.15999e-11 -2.60765e-09 -8.13437e-10 2.71695e-11 7.73091 5.47488 0.417314 -2.60767e-09 -8.13436e-10 2.71803e-11 2.90554 0.965183 0.102902 -2.60766e-09 -8.13435e-10 2.71723e-11 10.2786 0.731801 0.0259123 -2.60767e-09 -8.13433e-10 2.71736e-11 2.22167 -0.733487 -0.20892 -8.40245e-13 1.10962e-12 -1.41235e-13 3.42267 -32.2712 -67.2132 16.2728 -8.95042 -30.2345 2.96529 -43.0222 7.53054 -1.99948e-09 4.55353e-10 -6.59e-10 -3.41594e-09 8.50668e-10 -1.21124e-09 -1.99948e-09 4.55352e-10 -6.58993e-10 -7.73091 5.47488 -0.417314 -1.99948e-09 4.55351e-10 -6.59006e-10 -2.90554 0.965183 -0.102902 -1.99949e-09 4.5535e-10 -6.58998e-10 -10.2786 0.731801 -0.0259123 -1.99947e-09 4.55353e-10 -6.59004e-10 -2.22167 -0.733487 0.20892 -2.03217e-16 0.0 -3.88251e-19 -26.7966 -30.9565 15.474 -0.445988 44.5556 0.760093 0.225846 -16.1814 3.27375 2.03217e-16 0.0 3.88251e-19 55.2452 -72.1807 46.9592 0.956432 59.0988 -1.63805 7.22671 -21.7872 14.4634
-66.6341 85.1147 -5.75387 781.938 -43.2698 -283.827 11.113 12.3745 -22.3314 9.30163 -1.48631 -5.44542 -5.14248 0.104497 -0.451201 18.9145 -52.5831 9.45537 -0.0 0.0 0.0 -0.0 0.0 0.0 -1.03681e-12 1.29765e-12 -2.12998e-13 0.751864 -32.495 54.2084 -16.5797 -9.2372 30.9062 -1.74669 -34.7058 -5.58579 -3.51766e-09 -8.71866e-10 -8.52595e-10 -6.02921e-09 -1.49431e-09 -1.5799e-09 -3.51764e-09 -8.71867e-10 -8.52611e-10 7.73091 5.47488 0.417314 -3.51766e-09 -8.71867e-10 -8.52599e-10 2.90554 0.965183 0.102902 -3.51765e-09 -8.71866e-10 -8.52607e-10 10.2786 0.731801 0.0259123 -3.51765e-09 -8.71864e-10 -8.52605e-10 2.22167 -0.733487 -0.20892 -1.03703e-12 1.29768e-12 -2.13197e-13 6.13858 -31.4886 -67.1232 15.9794 -8.66811 -29.6292 3.172 -44.0862 7.82384 -2.5809e-09 5.06947e-10 -5.24963e-10 -4.41611e-09 9.60448e-10 -1.00171e-09 -2.5809e-09 5.06947e-10 -5.24954e-10 -7.73091 5.47488 -0.417314 -2.5809e-09 5.06944e-10 -5.2497e-10 -2.90554 0.965183 -0.102902 -2.58091e-09 5.06944e-10 -5.2496e-10 -10.2786 0.731801 -0.0259123 -2.58089e-09 5.06947e-10 -5.24966e-10 -2.22167 -0.733487 0.20892 -2.03217e-16 0.0 -3.88251e-19 -28.1739 -32.8456 15.6975 -0.595668 49.5417 0.901117 -0.165328 -16.2507 2.09554 2.03217e-16 0.0 3.88251e-19 46.7533 -70.6425 39.4434 0.841566 56.9283 -1.50152 7.11908 -21.7969 14.2401
-66.7833 85.1721 -5.80237 786.831 -42.3829 -287.902 10.4657 11.8562 -23.1495 10.1748 -1.46239 -5.6856 -5.56338 0.377348 -0.438213 19.5179 -52.2756 9.50812 -0.0 0.0 0.0 -0.0 0.0 0.0 -9.61727e-13 1.22444e-12 -1.94072e-13 1.04743 -32.7981 52.7075 -16.4701 -9.13 30.6751 -1.58585 -33.262 -5.29239 -3.21344e-09 -7.49261e-10 -1.18264e-09 -5.49826e-09 -1.28516e-09 -2.14157e-09 -3.21342e-09 -7.49262e-10 -1.18266e-09 7.73091 5.47488 0.417314 -3.21344e-09 -7.49261e-10 -1.18264e-09 2.90554 0.965183 0.102902 -3.21343e-09 -7.4926e-10 -1.18265e-09 10.2786 0.731801 0.0259123 -3.21344e-09 -7.49258e-10 -1.18265e-09 2.22167 -0.733487 -0.20892 -9.6192e-13 1.22448e-12 -1.94274e-13 8.21386 -30.9283 -67.1592 15.9337 -8.61983 -29.5476 3.25393 -44.4752 7.93615 -2.47595e-09 4.94418e-10 -1.3395e-10 -4.24932e-09 9.29551e-10 -3.22203e-10 -2.47596e-09 4.94419e-10 -1.33939e-10 -7.73091 5.47488 -0.417314 -2.47595e-09 4.94416e-10 -1.33955e-10 -2.90554 0.965183 -0.102902 -2.47596e-09 4.94416e-10 -1.33947e-10 -10.2786 0.731801 -0.0259123 -2.47594e-09 4.94418e-10 -1.33954e-10 -2.22167 -0.733487 0.20892 -2.03217e-16 0.0 -3.88251e-19 -29.5559 -34.6801 16.1895 -0.795909 54.547 1.09505 -0.382235 -16.2734 1.45277 2.03217e-16 0.0 3.88251e-19 40.008 -68.8182 34.1081 0.737724 54.6893 -1.37483 7.12523 -21.8483 14.1899
-66.9001 85.1858 -5.92161 791.466 -41.1403 -291.706 9.645 11.38 -23.9127 11.0864 -1.46177 -5.9153 -5.99761 0.726293 -0.421589 20.2123 -52.0476 9.61723 -0.0 0.0 0.0 -0.0 0.0 0.0 -7.25134e-13 9.887e-13 -1.24299e-13 1.03923 -32.9913 50.8336 -16.4055 -9.06792 30.5374 -1.45532 -32.0402 -5.04939 -2.23019e-09 -4.93434e-10 -1.29825e-09 -3.80565e-09 -8.48952e-10 -2.31252e-09 -2.23018e-09 -4.93435e-10 -1.29826e-09 7.73091 5.47488 0.417314 -2.23019e-09 -4.93435e-10 -1.29825e-09 2.90554 0.965183 0.102902 -2.23019e-09 -4.93434e-10 -1.29826e-09 10.2786 0.731801 0.0259123 -2.2302e-09 -4.93433e-10 -1.29825e-09 2.22167 -0.733487 -0.20892 -7.25275e-13 9.88734e-13 -1.24511e-13 9.98463 -30.5131 -67.2031 16.0791 -8.75623 -29.8516 3.25188 -44.4469 7.9306 -1.98974e-09 4.28221e-10 4.16902e-10 -3.43484e-09 7.88228e-10 6.48045e-10 -1.98974e-09 4.28223e-10 4.16917e-10 -7.73091 5.47488 -0.417314 -1.98974e-09 4.2822e-10 4.16901e-10 -2.90554 0.965183 -0.102902 -1.98974e-09 4.28219e-10 4.16905e-10 -10.2786 0.731801 -0.0259123 -1.98973e-09 4.28221e-10 4.16898e-10 -2.22167 -0.733487 0.20892 -2.03217e-16 0.0 -3.88251e-19 -30.9576 -36.4733 16.8033 -1.08194 59.6721 1.37625 -0.509375 -16.2559 1.07439 2.03217e-16 0.0 3.88251e-19 34.4116 -66.8713 30.2836 0.64498 52.3745 -1.25688 7.18821 -21.9152 14.219
